# File created by Blade
# Date/Time:  Wed Jan 21 19:19:18 2015
# Frame Rate: 120.000 fps
#------------------------------------------------------
:FULLY-SPECIFIED
:DEGREES
856
root -0.995311 14.331560 -3.303705 52.619136 -42.818209 20.043096
RightUpLeg -182.223447 -21.530086 35.154236
RightLeg 99.881627 -0.000000 -0.000000
RightFoot 1.983850 22.139072 21.357493
RightToeBase 32.004808 -0.000000 -0.000000
LeftUpLeg -23.709545 25.721662 18.273986
LeftLeg 15.328265 -0.000000 -0.000000
LeftFoot -35.625458 29.574774 -13.127844
LeftToeBase 14.169799 -0.000000 -0.000000
Spine -31.998826 14.978899 23.020668
RightShoulder -10.583407 32.410112 -19.527645
RightArm 8.675169 -37.547893 55.172245
RightForeArm -21.058029 0.000000 3.138115
RightHand 59.065146 -0.000000 -60.702565
RightHandThumb1 -24.326973 -0.000000 -32.862282
LeftShoulder -18.397267 -25.481929 72.907598
LeftArm 75.198432 -40.438041 -14.630908
LeftForeArm 19.873442 -0.000000 14.054873
LeftHand -18.295476 -0.000000 9.056260
LeftHandThumb1 -26.253704 0.000000 33.147579
Head -40.902046 16.427978 54.018987
857
root -0.997797 14.327539 -3.287446 52.649381 -42.845204 19.968648
RightUpLeg -182.183208 -21.535582 35.165105
RightLeg 99.904302 -0.000000 -0.000000
RightFoot 1.999453 22.199402 21.401676
RightToeBase 31.973862 -0.000000 -0.000000
LeftUpLeg -23.627530 25.751473 18.303650
LeftLeg 15.318378 -0.000000 -0.000000
LeftFoot -35.610899 29.619411 -13.086153
LeftToeBase 14.160918 -0.000000 -0.000000
Spine -31.898427 14.984397 23.080312
RightShoulder -10.678464 32.426944 -19.549906
RightArm 8.725619 -37.656666 55.108960
RightForeArm -21.040219 -0.000000 3.276540
RightHand 58.958562 -0.000000 -60.788080
RightHandThumb1 -24.326973 -0.000000 -32.862282
LeftShoulder -18.459752 -25.390960 72.863181
LeftArm 75.202243 -40.626794 -14.555560
LeftForeArm 19.858654 -0.000000 14.017461
LeftHand -18.289711 -0.000000 8.952036
LeftHandThumb1 -26.253704 0.000000 33.147579
Head -40.892340 16.463971 54.044153
858
root -0.998842 14.319338 -3.274197 52.757994 -42.906555 19.947145
RightUpLeg -182.265203 -21.502571 35.136464
RightLeg 99.920762 -0.000000 -0.000000
RightFoot 2.088546 22.247290 21.537678
RightToeBase 31.999634 -0.000000 -0.000000
LeftUpLeg -23.634126 25.745320 18.259821
LeftLeg 15.275046 -0.000000 -0.000000
LeftFoot -35.529489 29.753151 -12.974670
LeftToeBase 14.017979 -0.000000 -0.000000
Spine -31.925195 14.997858 23.057186
RightShoulder -10.761361 32.428919 -19.596780
RightArm 8.776090 -37.707275 55.109121
RightForeArm -21.070106 -0.000000 3.391683
RightHand 58.883252 -0.000000 -60.841118
RightHandThumb1 -24.326973 -0.000000 -32.862282
LeftShoulder -18.519542 -25.324577 72.843873
LeftArm 75.177685 -40.773155 -14.502196
LeftForeArm 19.910609 -0.000000 14.030975
LeftHand -18.335679 0.000000 8.905586
LeftHandThumb1 -26.253704 0.000000 33.147579
Head -40.845385 16.515479 54.057669
859
root -1.001883 14.310341 -3.254650 52.838697 -42.959910 19.891090
RightUpLeg -182.294932 -21.467432 35.146470
RightLeg 99.946829 -0.000000 -0.000000
RightFoot 2.092953 22.294708 21.554099
RightToeBase 32.021863 -0.000000 -0.000000
LeftUpLeg -23.596448 25.849142 18.219419
LeftLeg 15.236255 -0.000000 -0.000000
LeftFoot -35.542095 29.754624 -12.949778
LeftToeBase 14.075175 -0.000000 -0.000000
Spine -31.919625 15.018102 23.071829
RightShoulder -10.822714 32.364536 -19.622060
RightArm 8.900129 -37.765508 55.044778
RightForeArm -21.037259 -0.000000 3.459229
RightHand 58.891375 -0.000000 -60.815466
RightHandThumb1 -24.326973 -0.000000 -32.862282
LeftShoulder -18.551337 -25.274712 72.814825
LeftArm 75.164187 -40.904654 -14.452474
LeftForeArm 19.908425 -0.000000 14.027281
LeftHand -18.349093 -0.000000 8.926913
LeftHandThumb1 -26.253704 0.000000 33.147579
Head -40.765979 16.527893 54.115982
860
root -1.004199 14.302217 -3.234432 52.897115 -42.995807 19.854265
RightUpLeg -182.327086 -21.440889 35.176672
RightLeg 99.970005 -0.000000 -0.000000
RightFoot 2.058359 22.341379 21.513997
RightToeBase 32.043547 -0.000000 -0.000000
LeftUpLeg -23.577597 25.941580 18.173981
LeftLeg 15.221898 -0.000000 -0.000000
LeftFoot -35.643828 29.670957 -13.056350
LeftToeBase 14.156829 -0.000000 -0.000000
Spine -31.920692 15.032507 23.087215
RightShoulder -10.871062 32.348217 -19.668099
RightArm 8.923749 -37.826525 55.037943
RightForeArm -20.999425 -0.000000 3.522502
RightHand 58.843740 -0.000000 -60.828184
RightHandThumb1 -24.326973 -0.000000 -32.862282
LeftShoulder -18.578136 -25.226690 72.786092
LeftArm 75.172084 -41.037929 -14.444741
LeftForeArm 19.920432 -0.000000 14.021445
LeftHand -18.345389 -0.000000 9.034910
LeftHandThumb1 -26.253704 0.000000 33.147579
Head -40.686121 16.515646 54.177689
861
root -1.005288 14.295832 -3.217621 52.962285 -43.025409 19.812757
RightUpLeg -182.359781 -21.417165 35.203107
RightLeg 99.987205 -0.000000 -0.000000
RightFoot 2.108452 22.369278 21.620989
RightToeBase 32.026621 -0.000000 -0.000000
LeftUpLeg -23.548278 25.933629 18.172442
LeftLeg 15.206000 -0.000000 -0.000000
LeftFoot -35.707254 29.696499 -13.130292
LeftToeBase 14.176525 -0.000000 -0.000000
Spine -31.913352 15.048919 23.101007
RightShoulder -10.901458 32.338018 -19.715050
RightArm 8.898135 -37.796109 55.066610
RightForeArm -21.005061 -0.000000 3.613347
RightHand 58.846691 0.000000 -60.829866
RightHandThumb1 -24.326973 -0.000000 -32.862282
LeftShoulder -18.609079 -25.152186 72.757554
LeftArm 75.152223 -41.198894 -14.369246
LeftForeArm 19.889131 -0.000000 13.992205
LeftHand -18.343799 -0.000000 9.157347
LeftHandThumb1 -26.253704 0.000000 33.147579
Head -40.615740 16.548777 54.243413
862
root -1.006596 14.287442 -3.200998 53.046339 -43.062766 19.775276
RightUpLeg -182.418087 -21.382816 35.223066
RightLeg 100.004816 -0.000000 -0.000000
RightFoot 2.119991 22.395450 21.658205
RightToeBase 32.090962 -0.000000 -0.000000
LeftUpLeg -23.533185 25.913040 18.165775
LeftLeg 15.193618 -0.000000 -0.000000
LeftFoot -35.670367 29.823547 -13.052821
LeftToeBase 14.092972 -0.000000 -0.000000
Spine -31.922371 15.058689 23.105411
RightShoulder -10.945425 32.342463 -19.766096
RightArm 8.877251 -37.712356 55.128592
RightForeArm -21.098119 -0.000000 3.680614
RightHand 58.787406 -0.000000 -60.854831
RightHandThumb1 -24.326973 -0.000000 -32.862282
LeftShoulder -18.665314 -25.021767 72.738117
LeftArm 75.190711 -41.398858 -14.383278
LeftForeArm 19.951719 -0.000000 13.994295
LeftHand -18.427240 -0.000000 9.278945
LeftHandThumb1 -26.253704 0.000000 33.147579
Head -40.525539 16.539096 54.377522
863
root -1.009766 14.281521 -3.184038 53.123539 -43.114328 19.703123
RightUpLeg -182.417053 -21.337339 35.232799
RightLeg 100.025511 -0.000000 -0.000000
RightFoot 2.120645 22.410670 21.744219
RightToeBase 32.179572 -0.000000 -0.000000
LeftUpLeg -23.485638 25.985126 18.150033
LeftLeg 15.167713 -0.000000 -0.000000
LeftFoot -35.682695 29.835179 -13.034227
LeftToeBase 14.084893 -0.000000 -0.000000
Spine -31.861070 15.111495 23.117127
RightShoulder -11.087167 32.382016 -19.866664
RightArm 8.864867 -37.678728 55.193616
RightForeArm -21.202037 0.000000 3.765409
RightHand 58.728811 -0.000000 -60.888895
RightHandThumb1 -24.326973 -0.000000 -32.862282
LeftShoulder -18.773554 -24.868921 72.676379
LeftArm 75.244981 -41.648584 -14.310465
LeftForeArm 19.916723 -0.000000 13.987384
LeftHand -18.522407 -0.000000 9.403585
LeftHandThumb1 -26.253704 0.000000 33.147579
Head -40.574829 16.599071 54.411803
864
root -1.014335 14.272292 -3.165173 53.188350 -43.186918 19.649912
RightUpLeg -182.431098 -21.298653 35.214021
RightLeg 100.058515 -0.000000 -0.000000
RightFoot 2.152441 22.437018 21.841521
RightToeBase 32.194576 -0.000000 -0.000000
LeftUpLeg -23.429112 26.028784 18.126046
LeftLeg 15.153279 -0.000000 -0.000000
LeftFoot -35.688706 29.908078 -13.033949
LeftToeBase 14.107467 -0.000000 -0.000000
Spine -31.831203 15.162872 23.095534
RightShoulder -11.189756 32.487057 -19.965092
RightArm 8.686570 -37.619670 55.347936
RightForeArm -21.337436 -0.000000 3.904079
RightHand 58.632425 -0.000000 -60.865290
RightHandThumb1 -24.326973 -0.000000 -32.862282
LeftShoulder -18.843525 -24.791851 72.630234
LeftArm 75.267928 -41.828377 -14.207455
LeftForeArm 19.893152 -0.000000 13.961427
LeftHand -18.543607 -0.000000 9.446338
LeftHandThumb1 -26.253704 0.000000 33.147579
Head -40.575575 16.599920 54.485308
865
root -1.022000 14.259135 -3.140267 53.216299 -43.221916 19.615240
RightUpLeg -182.478017 -21.310659 35.242203
RightLeg 100.129317 -0.000000 -0.000000
RightFoot 2.209160 22.511052 21.962740
RightToeBase 32.155697 -0.000000 -0.000000
LeftUpLeg -23.362699 26.125291 18.095126
LeftLeg 15.131947 -0.000000 -0.000000
LeftFoot -35.773081 29.798299 -13.128402
LeftToeBase 14.196914 -0.000000 -0.000000
Spine -31.837407 15.179621 23.095202
RightShoulder -11.240174 32.553690 -20.022745
RightArm 8.467448 -37.574665 55.469300
RightForeArm -21.486371 -0.000000 4.103834
RightHand 58.485921 -0.000000 -60.889232
RightHandThumb1 -24.326973 -0.000000 -32.862282
LeftShoulder -18.880833 -24.751387 72.636520
LeftArm 75.203776 -41.908286 -14.077510
LeftForeArm 19.718453 -0.000000 13.956936
LeftHand -18.538530 -0.000000 9.654652
LeftHandThumb1 -26.253704 0.000000 33.147579
Head -40.507335 16.596519 54.572721
866
root -1.024093 14.248818 -3.121549 53.289263 -43.258206 19.585921
RightUpLeg -182.540816 -21.298219 35.254136
RightLeg 100.161987 -0.000000 -0.000000
RightFoot 2.232665 22.569603 22.026742
RightToeBase 32.189431 -0.000000 -0.000000
LeftUpLeg -23.326820 26.061988 18.100670
LeftLeg 15.115472 -0.000000 -0.000000
LeftFoot -35.739688 29.927848 -13.035225
LeftToeBase 14.057009 -0.000000 -0.000000
Spine -31.862156 15.152239 23.119284
RightShoulder -11.216654 32.544625 -20.010107
RightArm 8.427346 -37.730474 55.434866
RightForeArm -21.348035 -0.000000 4.336067
RightHand 58.325699 -0.000000 -61.016526
RightHandThumb1 -24.326973 -0.000000 -32.862282
LeftShoulder -18.936757 -24.641812 72.636429
LeftArm 75.235161 -42.046483 -14.072243
LeftForeArm 19.814513 -0.000000 13.931589
LeftHand -18.528389 -0.000000 9.654323
LeftHandThumb1 -26.253704 0.000000 33.147579
Head -40.383754 16.651054 54.650159
867
root -1.030414 14.239491 -3.100843 53.344170 -43.297648 19.531478
RightUpLeg -182.562184 -21.305187 35.261771
RightLeg 100.212310 -0.000000 -0.000000
RightFoot 2.261004 22.649708 22.114760
RightToeBase 32.236223 -0.000000 -0.000000
LeftUpLeg -23.267220 26.066518 18.110723
LeftLeg 15.112014 -0.000000 -0.000000
LeftFoot -35.779911 29.974456 -13.090846
LeftToeBase 14.074081 -0.000000 -0.000000
Spine -31.840616 15.198588 23.114188
RightShoulder -11.339317 32.487928 -20.037831
RightArm 8.440906 -37.649220 55.394114
RightForeArm -21.482504 -0.000000 4.544905
RightHand 58.243820 -0.000000 -60.981318
RightHandThumb1 -24.326973 -0.000000 -32.862282
LeftShoulder -19.013401 -24.549157 72.601706
LeftArm 75.221438 -42.227915 -13.904141
LeftForeArm 19.721174 -0.000000 13.875272
LeftHand -18.443227 -0.000000 9.684606
LeftHandThumb1 -26.253704 0.000000 33.147579
Head -40.392756 16.713680 54.695021
868
root -1.036481 14.229412 -3.079217 53.405562 -43.338930 19.442801
RightUpLeg -182.547453 -21.298233 35.278063
RightLeg 100.256353 -0.000000 -0.000000
RightFoot 2.269619 22.737615 22.137014
RightToeBase 32.234774 -0.000000 -0.000000
LeftUpLeg -23.175312 26.084048 18.146270
LeftLeg 15.109226 -0.000000 -0.000000
LeftFoot -35.808582 30.015625 -13.116203
LeftToeBase 14.053138 -0.000000 -0.000000
Spine -31.810849 15.241190 23.137018
RightShoulder -11.414049 32.458452 -20.037129
RightArm 8.448291 -37.605527 55.343025
RightForeArm -21.581277 -0.000000 4.696563
RightHand 58.225528 -0.000000 -60.960496
RightHandThumb1 -24.326973 -0.000000 -32.862282
LeftShoulder -19.073659 -24.514351 72.601711
LeftArm 75.200780 -42.323040 -13.761442
LeftForeArm 19.632259 -0.000000 13.816088
LeftHand -18.471545 -0.000000 9.693175
LeftHandThumb1 -26.253704 0.000000 33.147579
Head -40.333180 16.770221 54.790754
